# xmcd
#
# Track frame offsets: 
#        150
#        12828
#        24126
#        39243
#        51818
#        61717
#        72067
#        118766
#        127634
#        143982
#        161114
#        172997
#        185622
#        200895
#        217744
#
# Disc length: 3068 seconds
#
# Revision: 1
# Processed by: cddbd v1.5.2PL0 Copyright (c) Steve Scherf et al.
# Submitted via: ExactAudioCopy v1.0b3
#
DISCID=c30bfa0f
DTITLE=Various Artist - Brit Blues Volume 2
DYEAR=2006
DGENRE=Blues
TTITLE0=Fleetwood Mac - Man Of The World
TTITLE1=The Golden Apples Of The Sun - Chocolate Rolls, Tea And Monopo
TTITLE1=ly
TTITLE2=Humble Pie - Cold Lady
TTITLE3=Graham Bond Organisation - Wade In The Water
TTITLE4=John Mayall and The Bluesbreakers - I'm Your Witch Doctor
TTITLE5=The Yardbirds - I Wish You Would
TTITLE6=Davy Graham - Blues Raga
TTITLE7=Mick Softley - She's My Girl
TTITLE8=Rod Stewart - Little Miss Understood
TTITLE9=Savoy Brown Blues Band - Cold Blooded Woman
TTITLE10=T.S. McPhee - When You Got A Good Friend
TTITLE11=Eric Clapton and Jimmy Page - Freightloader
TTITLE12=Chris Farlowe - Handbags And Gladrags
TTITLE13=Spencer Davis R&B Quartet - Dimples
TTITLE14=Cyril Davis and His Rhythm and Blues All Stars - Someday Baby
EXTD=
EXTT0=
EXTT1=
EXTT2=
EXTT3=
EXTT4=
EXTT5=
EXTT6=
EXTT7=
EXTT8=
EXTT9=
EXTT10=
EXTT11=
EXTT12=
EXTT13=
EXTT14=
PLAYORDER=
